<?xml version="1.0" encoding="UTF-8" standalone="no"?>
<svg
   xmlns:dc="http://purl.org/dc/elements/1.1/"
   xmlns:cc="http://creativecommons.org/ns#"
   xmlns:rdf="http://www.w3.org/1999/02/22-rdf-syntax-ns#"
   xmlns:svg="http://www.w3.org/2000/svg"
   xmlns="http://www.w3.org/2000/svg"
   xmlns:sodipodi="http://sodipodi.sourceforge.net/DTD/sodipodi-0.dtd"
   xmlns:inkscape="http://www.inkscape.org/namespaces/inkscape"
   version="1.1"
   id="svg2"
   xml:space="preserve"
   width="302.35999"
   height="103.28"
   viewBox="0 0 302.35999 103.28"
   sodipodi:docname="skrill.eps"><metadata
     id="metadata8"><rdf:RDF><cc:Work
         rdf:about=""><dc:format>image/svg+xml</dc:format><dc:type
           rdf:resource="http://purl.org/dc/dcmitype/StillImage" /></cc:Work></rdf:RDF></metadata><defs
     id="defs6" /><sodipodi:namedview
     pagecolor="#ffffff"
     bordercolor="#666666"
     borderopacity="1"
     objecttolerance="10"
     gridtolerance="10"
     guidetolerance="10"
     inkscape:pageopacity="0"
     inkscape:pageshadow="2"
     inkscape:window-width="640"
     inkscape:window-height="480"
     id="namedview4" /><g
     id="g10"
     inkscape:groupmode="layer"
     inkscape:label="ink_ext_XXXXXX"
     transform="matrix(1.3333333,0,0,-1.3333333,0,103.28)"><g
       id="g12"
       transform="scale(0.1)"><path
         d="m 1628.91,588.469 c 51.41,0 93.08,41.648 93.08,93.015 0,51.387 -41.67,93.071 -93.08,93.071 -51.35,0 -93,-41.684 -93,-93.071 0,-51.367 41.65,-93.015 93,-93.015 z M 916.035,538.242 C 911.84,527.688 881.609,442.301 808.5,353.801 v 378.41 L 613.695,693.707 V 7.80469 H 808.5 V 219.824 C 864.922,135.203 892.777,7.80469 892.777,7.80469 H 1126.11 C 1103.03,103.75 1002.07,280.676 1002.07,280.676 c 90.61,114.875 130.41,237.285 136.74,257.566 z m 512.125,7.16 C 1253.68,539.801 1165.11,461.52 1165.11,305.91 V 7.80469 h 190.35 V 250.898 c 0,93.184 12.2,133.125 122.77,136.93 v 154.84 c -18.61,3.953 -50.07,2.734 -50.07,2.734 z M 287.004,462.715 c -23.863,1.566 -79.109,5.133 -79.109,54.863 0,60.012 79.531,60.012 109.363,60.012 52.453,0 120.379,-15.496 168.89,-30.008 0,0 27.059,-9.539 50.086,-19.316 l 2.149,-0.578 v 2.175 162.18 l -2.945,0.863 C 478.191,712.941 411.617,732.211 288.199,732.211 75.4023,732.211 0,608.242 0,502.039 0,440.82 26.2344,296.738 269.945,280.117 c 20.664,-1.269 75.489,-4.422 75.489,-55.82 0,-42.43 -44.887,-67.449 -120.379,-67.449 -82.742,0 -163.0081,21.101 -211.7542,41.113 V 28.6914 C 86.2852,9.5625 168.551,0 264.973,0 473.035,0 566.23,117.297 566.23,233.547 c 0,131.805 -104.281,217.445 -279.226,229.168 z M 1534.55,7.80469 h 188.81 V 537.648 H 1534.55 Z M 2078.88,698.434 V 7.80469 h 188.84 V 732.211 Z m -275.54,0 188.66,33.777 V 7.80469 H 1803.34 V 698.434"
         style="fill:#751b63;fill-opacity:1;fill-rule:nonzero;stroke:none"
         id="path14" /></g></g></svg>
